Coordinates
version=1
nRows=19
nColumns=24
inDegrees=yes

Units are S.I. units (second, meters, Newtons, ...)
Angles are in degrees.

endheader
time	pelvis_tilt	pelvis_list	pelvis_rotation	pelvis_tx	pelvis_ty	pelvis_tz	hip_flexion_r	hip_adduction_r	hip_rotation_r	knee_angle_r	ankle_angle_r	subtalar_angle_r	mtp_angle_r	hip_flexion_l	hip_adduction_l	hip_rotation_l	knee_angle_l	ankle_angle_l	subtalar_angle_l	mtp_angle_l	lumbar_extension	lumbar_bending	lumbar_rotation
      0.97500000	     10.29225406	     -8.19673890	     -2.30710856	     -0.45788411	      0.89709230	     -0.02738983	    -31.20268981	      9.24472580	      0.30146693	     -9.74074507	     15.40955664	      1.57388455	     46.52127891	     11.80452695	     -7.93693516	     -5.22346925	     -3.09837936	      8.61881871	     -0.07825311	     30.60732538	    -25.91742883	      4.29548264	      3.91197334
      0.98000000	     10.20719848	     -7.93190495	     -2.36259113	     -0.44962708	      0.89646966	     -0.02788286	    -30.97912956	      8.84407501	      0.28039260	    -10.90927094	     15.15858816	      1.83161128	     47.05243479	     12.04961133	     -7.58233091	     -5.10828191	     -4.01363843	      8.49278570	     -0.47109869	     30.67464653	    -25.79542549	      3.99331385	      3.76695719
      0.98500000	     10.13990390	     -7.59618973	     -2.30630379	     -0.44135142	      0.89589386	     -0.02846338	    -30.75131524	      8.44635427	      0.19097681	    -12.06789914	     14.63246195	      1.69613011	     49.24017116	     12.34535445	     -7.13130558	     -4.89510761	     -5.10129521	      8.28170131	     -0.93799623	     31.11905475	    -25.68175478	      3.64835495	      3.42130350
      0.99000000	      9.97996777	     -7.30563739	     -2.37743879	     -0.43318332	      0.89532200	     -0.02891801	    -30.29974325	      8.03550335	      0.24213110	    -13.47503937	     14.24055731	      1.84391160	     49.99054118	     12.76680459	     -6.76358124	     -4.84487171	     -6.36220641	      8.20377145	     -1.23519579	     31.27079733	    -25.48915152	      3.31402797	      3.28931859
      0.99500000	      9.88438608	     -6.92474318	     -2.26042060	     -0.42498988	      0.89483077	     -0.02956448	    -29.90469093	      7.64295689	      0.11382819	    -14.83911660	     13.52049306	      1.49917800	     52.45480097	     13.17553347	     -6.25527890	     -4.56738253	     -7.71592052	      7.96585972	     -1.73552551	     31.71821958	    -25.35417561	      2.93961305	      2.87334827
      1.00000000	      9.67593230	     -6.57586188	     -2.19472080	     -0.41687728	      0.89425987	     -0.03013624	    -29.28885365	      7.27123871	      0.07085101	    -16.39079379	     12.87962964	      1.34718441	     53.94582031	     13.75412995	     -5.80463738	     -4.36428147	     -9.23479847	      7.84548275	     -2.08896793	     31.97270345	    -25.10872440	      2.58487879	      2.55793750
      1.00500000	      9.43314381	     -6.24402841	     -2.17339779	     -0.40884563	      0.89370590	     -0.03070664	    -28.52345283	      6.89519106	      0.05917555	    -18.14643560	     12.26535576	      1.31529701	     54.77926411	     14.36867818	     -5.38306521	     -4.18787278	    -10.80731787	      7.80603336	     -2.37513854	     32.07975288	    -24.83826938	      2.24013654	      2.32259613
      1.01000000	      9.28919285	     -5.83904695	     -2.01968376	     -0.40076796	      0.89330407	     -0.03139986	    -27.85757604	      6.51746074	     -0.07999608	    -19.84447972	     11.24846774	      0.74788683	     57.81765941	     14.87057333	     -4.84672668	     -3.88370665	    -12.36153235	      7.66540757	     -2.79407146	     32.36046509	    -24.66774066	      1.84948194	      1.87989408
      1.01500000	      9.02499462	     -5.49004424	     -1.87527140	     -0.39280400	      0.89277777	     -0.03210368	    -26.94606917	      6.20046002	     -0.19635017	    -21.75614293	     10.28857284	      0.36294371	     59.12582768	     15.51657881	     -4.37643122	     -3.54483782	    -13.96216104	      7.57585444	     -3.09230822	     32.43829495	    -24.38090413	      1.52350082	      1.53175732
      1.02000000	      8.72316223	     -5.14209949	     -1.80841455	     -0.38488461	      0.89224405	     -0.03271685	    -25.90246266	      5.85528084	     -0.22310844	    -23.82391816	      9.37457957	      0.08880405	     59.81521252	     16.17062894	     -3.92855660	     -3.31341638	    -15.55126302	      7.61514311	     -3.35624344	     32.46296998	    -24.05972228	      1.17223585	      1.25426970
      1.02500000	      8.52667550	     -4.73930802	     -1.63272271	     -0.37693002	      0.89186893	     -0.03346317	    -24.94795022	      5.49360310	     -0.42160744	    -25.86903127	      8.12045056	     -0.58787000	     62.45649880	     16.66302076	     -3.39004712	     -3.01418881	    -17.03506715	      7.59422459	     -3.59546125	     32.42305893	    -23.84944884	      0.79144308	      0.85253482
      1.03000000	      8.24455568	     -4.37143630	     -1.58287135	     -0.36909881	      0.89143704	     -0.03407281	    -23.78174736	      5.12869287	     -0.45209179	    -28.13030843	      6.99760275	     -1.11669504	     62.81714712	     17.18359292	     -2.91948970	     -2.80568509	    -18.42859389	      7.62872337	     -3.88441180	     32.39073229	    -23.55866233	      0.41074761	      0.63065818
      1.03500000	      7.97548356	     -4.00521711	     -1.46404686	     -0.36130227	      0.89103107	     -0.03475666	    -22.58595676	      4.79139791	     -0.56745075	    -30.41795016	      5.69629640	     -1.76368358	     63.56301835	     17.66172797	     -2.43573611	     -2.57745405	    -19.75322143	      7.67335807	     -4.11288903	     32.29851765	    -23.28825942	      0.05245451	      0.32223705
      1.04000000	      7.73785233	     -3.59179925	     -1.40781835	     -0.35352727	      0.89071095	     -0.03537243	    -21.35668828	      4.37826463	     -0.66749324	    -32.79171194	      4.40981935	     -2.52009468	     64.15708776	     18.00383937	     -1.91712199	     -2.43220219	    -20.90566016	      7.80709636	     -4.32859406	     32.17949403	    -23.05102796	     -0.37968050	      0.09311220
      1.04500000	      7.51448749	     -3.15274987	     -1.31205692	     -0.34577740	      0.89041144	     -0.03605142	    -20.10006045	      3.93905188	     -0.86132955	    -35.19349974	      3.10103784	     -3.35515588	     65.14059525	     18.27547337	     -1.36362267	     -2.27932196	    -21.95228243	      8.05931494	     -4.37055212	     31.84260365	    -22.83222180	     -0.82446965	     -0.17634148
      1.05000000	      7.34286221	     -2.69095936	     -1.35089118	     -0.33808940	      0.89030587	     -0.03655162	    -18.84287622	      3.43977357	     -0.89697116	    -37.64138998	      1.80791760	     -4.24637909	     65.10865891	     18.36740725	     -0.82276880	     -2.29493211	    -22.78394663	      8.24854276	     -4.62611005	     31.72041966	    -22.67381124	     -1.34120086	     -0.29341584
      1.05500000	      7.12377937	     -2.26333157	     -1.32516434	     -0.33048127	      0.89012554	     -0.03710981	    -17.50067902	      2.99778799	     -0.99537952	    -40.08837317	      0.51484034	     -5.16946185	     64.93256594	     18.50142445	     -0.30965456	     -2.27344028	    -23.58420249	      8.53051062	     -4.72181756	     31.52221169	    -22.47260093	     -1.79870972	     -0.47510204
      1.06000000	      6.93718410	     -1.79828347	     -1.34647790	     -0.32290125	      0.89006310	     -0.03761392	    -16.16575738	      2.50214059	     -1.05991112	    -42.52401412	     -0.64486225	     -6.16681213	     64.55685870	     18.50564239	      0.23268723	     -2.30321391	    -24.21559587	      8.89213674	     -4.82015747	     31.30287252	    -22.30642980	     -2.31135742	     -0.60834128
      1.06500000	      6.75498789	     -1.34818435	     -1.34588019	     -0.31536600	      0.89004892	     -0.03811111	    -14.81790560	      2.02663416	     -1.14322608	    -44.93693999	     -1.61275506	     -6.92846947	     62.53381040	     18.46841859	      0.75193994	     -2.35851696	    -24.78698608	      9.43454011	     -4.66623362	     29.99194622	    -22.14893410	     -2.80218334	     -0.76443704
